<?xml version="1.0" encoding="UTF-8" standalone="no"?>
<!-- Created with Inkscape (http://www.inkscape.org/) -->

<svg
   xmlns:dc="http://purl.org/dc/elements/1.1/"
   xmlns:cc="http://creativecommons.org/ns#"
   xmlns:rdf="http://www.w3.org/1999/02/22-rdf-syntax-ns#"
   xmlns:svg="http://www.w3.org/2000/svg"
   xmlns="http://www.w3.org/2000/svg"
   xmlns:sodipodi="http://sodipodi.sourceforge.net/DTD/sodipodi-0.dtd"
   xmlns:inkscape="http://www.inkscape.org/namespaces/inkscape"
   id="svg2985"
   version="1.1"
   inkscape:version="0.48.4 r9939"
   width="1409.2954"
   height="688.2181"
   xml:space="preserve"
   sodipodi:docname="Sinco Orchestra"><title
     id="title3037">Sinco Orchestra</title><metadata
     id="metadata2991"><rdf:RDF><cc:Work
         rdf:about=""><dc:format>image/svg+xml</dc:format><dc:type
           rdf:resource="http://purl.org/dc/dcmitype/StillImage" /><dc:title>Sinco Orchestra</dc:title></cc:Work></rdf:RDF></metadata><defs
     id="defs2989" /><sodipodi:namedview
     pagecolor="#ffffff"
     bordercolor="#666666"
     borderopacity="1"
     objecttolerance="10"
     gridtolerance="10"
     guidetolerance="10"
     inkscape:pageopacity="0"
     inkscape:pageshadow="2"
     inkscape:window-width="1081"
     inkscape:window-height="745"
     id="namedview2987"
     showgrid="false"
     inkscape:zoom="0.52153721"
     inkscape:cx="704.64771"
     inkscape:cy="344.10904"
     inkscape:window-x="2181"
     inkscape:window-y="128"
     inkscape:window-maximized="0"
     inkscape:current-layer="g2993" /><g
     id="g2993"
     inkscape:groupmode="layer"
     inkscape:label="Logo_sinco"
     transform="matrix(1.25,0,0,-1.25,0,688.2181)"><path
       d="m 298.58089,347.54939 c 4.63418,-10.9638 10.42692,-19.38446 17.37819,-25.26196 6.95128,-5.8775 14.60898,-8.81625 22.97312,-8.81625 8.5902,0 15.6545,2.54315 21.19292,7.62945 5.53841,5.0863 8.30762,11.47243 8.30762,19.1584 0,6.21658 -2.09103,11.83977 -6.2731,16.86956 -4.18207,5.02978 -11.02032,10.14434 -20.51474,15.34367 l -8.9858,4.91676 c -20.57126,10.9638 -32.94792,18.25416 -37.12999,21.87109 -8.5902,7.4599 -14.6655,14.89155 -18.22591,22.29494 -3.56041,7.40339 -5.34061,16.07836 -5.34061,26.0249 0,21.81458 7.31862,39.64489 21.95586,53.49093 14.63724,13.84603 33.71086,20.76905 57.22087,20.76905 16.50222,0 30.96992,-3.75821 43.4031,-11.27463 12.43317,-7.51642 22.15366,-18.33894 29.16145,-32.46755 l -25.77059,-17.97159 c -4.52115,10.85077 -10.25737,18.98885 -17.20865,24.41424 -6.95127,5.42539 -15.23064,8.13808 -24.83809,8.13808 -8.02506,0 -14.6655,-2.48664 -19.92135,-7.45991 -5.25584,-4.97327 -7.88376,-11.18986 -7.88376,-18.64976 0,-6.32962 2.1758,-11.86804 6.52742,-16.61525 4.35161,-4.74721 12.744,-10.28563 25.17718,-16.61525 l 4.23859,-2.20406 c 23.17092,-11.52895 37.12999,-19.27142 41.8772,-23.22743 8.36414,-6.89477 14.38292,-14.15687 18.05636,-21.78632 3.67344,-7.62945 5.51016,-16.53048 5.51016,-26.70308 0,-22.26669 -7.77074,-40.40783 -23.31221,-54.42341 -15.54147,-14.01558 -35.74538,-21.02337 -60.61174,-21.02337 -17.74553,0 -33.42829,3.8995 -47.04827,11.69849 -13.61998,7.79899 -23.99038,18.81931 -31.1112,33.06095 l 31.19597,18.81931 z"
       style="fill:#FFFFFF;fill-opacity:1;fill-rule:evenodd;stroke:none"
       id="path2995" /><path
       d="m 458.33545,289.90466 0,100.8942 32.87308,0 0,-100.8942 -32.87308,0 z m -0.68249,142.29837 c 0,4.7774 1.68726,8.85336 5.06177,12.22787 3.37452,3.37452 7.41256,5.06178 12.11413,5.06178 4.85324,0 8.94815,-1.6683 12.28475,-5.0049 3.3366,-3.3366 5.0049,-7.43152 5.0049,-12.28475 0,-4.77741 -1.68726,-8.83441 -5.06177,-12.17101 -3.37452,-3.3366 -7.45047,-5.0049 -12.22788,-5.0049 -4.70157,0 -8.73961,1.68726 -12.11413,5.06178 -3.37451,3.37451 -5.06177,7.41255 -5.06177,12.11413 z"
       style="fill:#FFFFFF;fill-opacity:1;fill-rule:evenodd;stroke:none"
       id="path2997" /><path
       d="m 715.78413,315.0429 c -4.24658,-9.40315 -9.97188,-16.56925 -17.1759,-21.49832 -7.20402,-4.92906 -15.58343,-7.3936 -25.13824,-7.3936 -14.71137,0 -26.71175,4.96699 -36.00115,14.90095 -9.28939,9.93397 -13.93409,22.82537 -13.93409,38.67422 0,15.92468 4.79636,28.94879 14.38908,39.07233 9.59273,10.12355 21.74477,15.18532 36.45614,15.18532 10.16146,0 18.65462,-2.18016 25.47949,-6.54049 6.82486,-4.36033 11.75392,-10.78708 14.7872,-19.28024 l -14.21847,-8.18983 c -1.59246,6.29404 -4.00012,11.01457 -7.22298,14.16159 -3.22285,3.14702 -7.18506,4.72053 -11.88663,4.72053 -7.05236,0 -12.45537,-3.27973 -16.20905,-9.83918 -3.75367,-6.55945 -5.63051,-16.0953 -5.63051,-28.60755 0,-13.42222 1.59247,-23.18557 4.77741,-29.29003 3.18493,-6.10446 8.26566,-9.15669 15.24219,-9.15669 5.15656,0 9.85813,1.85788 14.10471,5.57364 4.24658,3.71576 7.31777,8.72066 9.21357,15.0147 l 12.96723,-7.50735 z"
       style="fill:#FFFFFF;fill-opacity:1;fill-rule:evenodd;stroke:none"
       id="path2999" /><path
       d="m 800.11387,339.27116 c 0,13.72555 -1.38393,24.03868 -4.15179,30.93937 -2.76787,6.90069 -6.95757,10.35104 -12.56913,10.35104 -5.23239,0 -9.13773,-3.27972 -11.71601,-9.83917 -2.57828,-6.55945 -3.86742,-16.47446 -3.86742,-29.74503 0,-13.80138 1.40289,-24.17138 4.20867,-31.10999 2.80577,-6.93861 6.97652,-10.40792 12.51224,-10.40792 5.2324,0 9.13773,3.29869 11.71601,9.89605 2.57828,6.59737 3.86743,16.56925 3.86743,29.91565 z m -16.03843,-53.12018 c -14.7872,0 -27.10987,5.38406 -36.968,16.15218 -9.85813,10.76811 -14.7872,24.26617 -14.7872,40.49418 0,15.46968 4.70157,27.86818 14.10471,37.19549 9.40314,9.32731 21.95331,13.99097 37.65049,13.99097 14.71137,0 26.97716,-5.40302 36.79738,-16.20905 9.82022,-10.80603 14.73033,-24.32305 14.73033,-40.55105 0,-15.62135 -4.6447,-28.03881 -13.9341,-37.25237 -9.28939,-9.21357 -21.8206,-13.82035 -37.59361,-13.82035 z"
       style="fill:#FFFFFF;fill-opacity:1;fill-rule:evenodd;stroke:none"
       id="path3001" /><path
       d="m 103.75813,234.10644 c 0,-26.76063 4.37125,-47.65738 13.11377,-62.69024 8.74252,-15.03287 20.73682,-22.5493 35.98292,-22.5493 15.35272,0 27.40033,7.51643 36.14285,22.5493 8.74252,15.03286 13.11378,35.92961 13.11378,62.69024 0,26.76064 -4.34461,47.63073 -13.03382,62.61029 -8.68921,14.97955 -20.76348,22.46933 -36.22281,22.46933 -15.35271,0 -27.37367,-7.48978 -36.06288,-22.46933 -8.68921,-14.97956 -13.03381,-35.84965 -13.03381,-62.61029 z m 49.09669,111.62702 c 14.81964,0 29.02623,-2.42551 42.61978,-7.27654 13.59355,-4.85103 25.29466,-11.70112 35.10334,-20.55025 11.83438,-10.55499 20.79013,-22.94911 26.86724,-37.18235 6.07712,-14.23325 9.11568,-29.87916 9.11568,-46.93772 0,-16.95196 -3.06522,-32.49125 -9.19564,-46.61788 -6.13042,-14.12663 -15.05952,-26.46744 -26.78728,-37.02243 -9.9153,-8.84913 -21.61641,-15.69921 -35.10334,-20.55024 -13.48694,-4.85103 -27.69353,-7.27655 -42.61978,-7.27655 -14.81963,0 -28.99957,2.45217 -42.53981,7.35651 -13.540237,4.90434 -25.214696,11.72776 -35.023373,20.47028 -11.941,10.76822 -20.923404,23.2423 -26.94721,37.42224 -6.023809,14.17994 -9.035712,29.79919 -9.035712,46.85776 0,16.73872 3.065211,32.25136 9.195636,46.53791 6.130423,14.28656 15.059517,26.70733 26.787286,37.26232 9.70206,8.74252 21.323212,15.51264 34.863453,20.31036 13.54024,4.79772 27.77348,7.19658 42.69973,7.19658 z"
       style="fill:#FFFFFF;fill-opacity:1;fill-rule:evenodd;stroke:none"
       id="path3003" /><path
       d="m 300.0857,127.91141 0,100.89421 44.02036,0 c 13.57389,0 23.88702,-2.55933 30.93938,-7.67797 7.05235,-5.11865 10.57853,-12.56912 10.57853,-22.35142 0,-6.74904 -1.57351,-12.24684 -4.72053,-16.49342 -3.14702,-4.24658 -7.86755,-7.24194 -14.16158,-8.98607 l 29.5744,-45.38533 -38.44673,0 -22.86328,47.54654 0,1.81996 c 6.29404,0.90998 10.90082,2.93848 13.82034,6.0855 2.91953,3.14702 4.37929,7.64006 4.37929,13.4791 0,5.91489 -1.55455,10.38896 -4.66366,13.42223 -3.1091,3.03327 -7.69692,4.54991 -13.76347,4.54991 -0.90998,0 -1.63038,-0.019 -2.1612,-0.0569 -0.53083,-0.0379 -1.02373,-0.0948 -1.47872,-0.17062 l 0,-86.67575 -31.05313,0 z"
       style="fill:#FFFFFF;fill-opacity:1;fill-rule:evenodd;stroke:none"
       id="path3005" /><path
       d="m 501.44799,153.04965 c -4.24658,-9.40314 -9.97188,-16.56925 -17.1759,-21.49831 -7.20402,-4.92907 -15.58344,-7.3936 -25.13824,-7.3936 -14.71137,0 -26.71176,4.96698 -36.00115,14.90094 -9.2894,9.93397 -13.93409,22.82537 -13.93409,38.67422 0,15.92468 4.79636,28.94879 14.38908,39.07234 9.59272,10.12354 21.74477,15.18531 36.45614,15.18531 10.16146,0 18.65462,-2.18016 25.47948,-6.54049 6.82486,-4.36033 11.75393,-10.78707 14.7872,-19.28023 l -14.21846,-8.18984 c -1.59247,6.29404 -4.00013,11.01457 -7.22298,14.16159 -3.22285,3.14702 -7.18506,4.72053 -11.88663,4.72053 -7.05236,0 -12.45537,-3.27973 -16.20905,-9.83918 -3.75367,-6.55945 -5.63051,-16.0953 -5.63051,-28.60754 0,-13.42223 1.59247,-23.18558 4.7774,-29.29003 3.18494,-6.10446 8.26567,-9.15669 15.2422,-9.15669 5.15656,0 9.85813,1.85787 14.10471,5.57363 4.24658,3.71576 7.31777,8.72066 9.21356,15.0147 l 12.96724,-7.50735 z"
       style="fill:#FFFFFF;fill-opacity:1;fill-rule:evenodd;stroke:none"
       id="path3007" /><path
       d="m 517.15413,127.91141 20.95961,0 0,49.82149 30.76145,0 0,-49.82149 26.68549,0 0,100.89421 -26.68549,0 0,-34.69305 -30.76145,0 -0.073,161.53826 33.93834,-54.82639 c 3.72135,-5.68739 6.86101,-9.55481 9.41898,-11.60227 2.55798,-2.04746 5.38692,-3.07119 8.48684,-3.07119 4.10914,0 7.07448,1.28914 8.89601,3.86742 1.82153,2.57828 2.7323,6.9007 2.7323,12.96724 l 0,87.81322 -16.5329,0 0,-50.61772 -22.89532,36.62676 c -3.84299,6.2182 -7.60889,10.63541 -11.29773,13.2516 -3.68883,2.6162 -10.61114,4.69291 -15.29836,4.69291 -5.68679,0 -11.45684,-2.34212 -14.18523,-5.48914 -2.72838,-3.14702 -4.09258,-8.09504 -4.09258,-14.84407 l -0.057,-246.50779 z"
       style="fill:#FFFFFF;fill-opacity:1;fill-rule:evenodd;stroke:none"
       id="path3009" /><path
       d="m 640.03532,127.91141 c -7.81067,0 -13.32744,1.72517 -16.55029,5.17552 -3.22285,3.45035 -4.83428,9.4221 -4.83428,17.91526 l 0,54.71265 c 0,8.49316 1.61143,14.46491 4.83428,17.91526 3.22285,3.45034 8.73962,5.17552 16.55029,5.17552 l 46.86405,0 0,-15.12845 -24.91074,0 c -4.17075,0 -6.95757,-0.75831 -8.36046,-2.27495 -1.40289,-1.51664 -2.10433,-4.51199 -2.10433,-8.98607 l 0,-16.49341 31.62186,0 0,-15.12845 -31.62186,0 0,-16.83466 c 0,-4.39824 0.68249,-7.31777 2.04746,-8.75857 1.36497,-1.4408 4.17075,-2.16121 8.41733,-2.16121 l 26.50321,0 0,-15.12844 -48.45652,0 z"
       style="fill:#FFFFFF;fill-opacity:1;fill-rule:evenodd;stroke:none"
       id="path3011" /><path
       d="m 746.91006,228.80562 c -13.19473,0 -23.2614,-2.76786 -30.20001,-8.30358 -6.93861,-5.53573 -10.40792,-13.5739 -10.40792,-24.11452 0,-7.05235 1.83892,-12.62599 5.51677,-16.72091 3.67784,-4.09491 10.48374,-7.77276 20.41771,-11.03352 1.74413,-0.53083 4.13283,-1.25123 7.1661,-2.16121 10.08563,-3.03327 15.12845,-7.12819 15.12845,-12.28475 0,-4.01909 -1.23227,-6.88174 -3.6968,-8.58795 -2.46454,-1.70622 -6.80591,-2.55933 -13.02411,-2.55933 l -26.84446,0 0,-15.12844 33.55557,0 c 12.20892,0 21.78268,3.16598 28.72129,9.49793 6.93861,6.33196 10.40792,15.03366 10.40792,26.1051 0,8.114 -1.8958,14.40804 -5.68739,18.88212 -3.79159,4.47407 -11.07144,8.45524 -21.83956,11.94351 -0.98581,0.30332 -2.46453,0.79623 -4.43616,1.47872 -8.79648,2.72994 -13.19473,6.18029 -13.19473,10.35104 0,2.35078 1.06165,4.1897 3.18494,5.51676 2.12329,1.32705 5.04281,1.99058 8.75857,1.99058 l 61.99905,-0.0758 0,-85.68993 32.87309,0 0,85.50775 27.07195,0 0,15.38646 -125.47027,0 z"
       style="fill:#FFFFFF;fill-opacity:1;fill-rule:evenodd;stroke:none"
       id="path3013" /><path
       d="m 888.1116,127.91141 0,100.89421 44.02036,0 c 13.57389,0 23.88702,-2.55933 30.93937,-7.67797 7.05236,-5.11865 10.57854,-12.56912 10.57854,-22.35142 0,-6.74904 -1.57351,-12.24684 -4.72053,-16.49342 -3.14702,-4.24658 -7.86755,-7.24194 -14.16159,-8.98607 l 29.5744,-45.38533 -38.44672,0 -22.86329,47.54654 0,1.81996 c 6.29404,0.90998 10.90082,2.93848 13.82035,6.0855 2.91952,3.14702 4.37929,7.64006 4.37929,13.4791 0,5.91489 -1.55456,10.38896 -4.66366,13.42223 -3.10911,3.03327 -7.69693,4.54991 -13.76347,4.54991 -0.90998,0 -1.63039,-0.019 -2.16121,-0.0569 -0.53082,-0.0379 -1.02373,-0.0948 -1.47872,-0.17062 l 0,-86.67575 -31.05312,0 z"
       style="fill:#FFFFFF;fill-opacity:1;fill-rule:evenodd;stroke:none"
       id="path3015" /><path
       d="m 992.01081,127.91141 26.27569,82.23959 c 2.5783,8.18983 5.5168,13.87722 8.8155,17.06215 3.2987,3.18494 7.7538,4.7774 13.3653,4.7774 5.2324,0 9.3273,-1.40289 12.2848,-4.20866 2.9574,-2.80578 5.6874,-8.15192 8.1898,-16.03843 l 27.1857,-83.83205 -34.4655,0 -5.5737,18.42713 -33.5555,0 -5.3462,-18.42713 -17.17589,0 z m 26.73069,32.41809 25.1383,0 -12.0573,43.79287 -13.081,-43.79287 z"
       style="fill:#FFFFFF;fill-opacity:1;fill-rule:evenodd;stroke:none"
       id="path3017" /><path
       d="m 389.46816,30.18641 0,50.903359 -15.70657,0 0,7.919278 47.86764,0 0,-7.919278 -15.66257,0 0,-50.903359 -16.4985,0 z"
       style="fill:#FFFFFF;fill-opacity:1;fill-rule:evenodd;stroke:none"
       id="path3019" /><path
       d="m 421.61005,30.18641 0,39.024442 17.02645,0 c 5.25018,0 9.23915,-0.98991 11.9669,-2.969729 2.72776,-1.97982 4.09163,-4.861557 4.09163,-8.645212 0,-2.610429 -0.60861,-4.736902 -1.82583,-6.379419 -1.21722,-1.642517 -3.04306,-2.801078 -5.4775,-3.475683 l 11.43895,-17.554399 -14.87064,0 -8.84319,18.390323 0,0.703936 c 2.43444,0.351968 4.21628,1.136563 5.34551,2.353785 1.12923,1.217222 1.69384,2.955064 1.69384,5.213525 0,2.287791 -0.60127,4.0183 -1.80383,5.191527 -1.20256,1.173226 -2.97706,1.759839 -5.32352,1.759839 -0.35196,0 -0.63061,-0.0073 -0.83592,-0.022 -0.20531,-0.01467 -0.39596,-0.03666 -0.57195,-0.06599 l 0,-33.524943 -12.0109,0 z"
       style="fill:#FFFFFF;fill-opacity:1;fill-rule:evenodd;stroke:none"
       id="path3021" /><path
       d="m 489.17645,49.280669 c 0,5.308849 -0.53529,9.297819 -1.60586,11.966909 -1.07057,2.669089 -2.69108,4.003635 -4.86155,4.003635 -2.02382,0 -3.53435,-1.268552 -4.53159,-3.805653 -0.99724,-2.537102 -1.49586,-6.372086 -1.49586,-11.504951 0,-5.338181 0.54261,-9.349148 1.62785,-12.032903 1.08523,-2.683755 2.69842,-4.025633 4.83956,-4.025633 2.02381,0 3.53434,1.275884 4.53158,3.827651 0.99725,2.551767 1.49587,6.408749 1.49587,11.570945 z m -6.20344,-20.546127 c -5.71948,0 -10.48571,2.082477 -14.29869,6.247431 -3.81299,4.164953 -5.71948,9.38581 -5.71948,15.662572 0,5.983454 1.8185,10.779017 5.4555,14.386688 3.637,3.607671 8.49123,5.411507 14.56267,5.411507 5.69015,0 10.43438,-2.08981 14.23271,-6.269429 3.79832,-4.179619 5.69748,-9.407809 5.69748,-15.68457 0,-6.042116 -1.79651,-10.845011 -5.38951,-14.408686 -3.59301,-3.563675 -8.4399,-5.345513 -14.54068,-5.345513 z"
       style="fill:#FFFFFF;fill-opacity:1;fill-rule:evenodd;stroke:none"
       id="path3023" /><path
       d="m 518.63796,55.616091 0,-25.429681 -6.29143,0 0,32.689019 c 0,2.610429 0.51913,4.524254 1.55739,5.741477 1.03826,1.217222 2.63942,1.825834 4.80347,1.825834 1.78367,0 3.37738,-0.505954 4.78112,-1.517862 1.40375,-1.011908 2.83683,-2.720419 4.29924,-5.125533 l 8.71258,-14.166708 0,19.578215 6.29143,0 0,-33.964903 c 0,-2.346454 -0.34659,-4.018301 -1.03975,-5.015543 -0.69317,-0.997242 -1.8216,-1.495864 -3.38529,-1.495864 -1.17964,0 -2.25617,0.395964 -3.22958,1.187892 -0.97341,0.791928 -2.16818,2.287791 -3.5843,4.487591 l -12.91488,21.206066 z"
       style="fill:#FFFFFF;fill-opacity:1;fill-rule:evenodd;stroke:none"
       id="path3025" /><path
       d="m 578.19709,63.799345 c -4.28228,-0.05866 -7.362,-1.180559 -9.23916,-3.365693 -1.87716,-2.185134 -2.81574,-5.785472 -2.81574,-10.801015 0,-4.986213 0.93124,-8.55722 2.79374,-10.713023 1.8625,-2.155804 4.94955,-3.263036 9.26116,-3.321697 l 0,28.201428 z m 12.71484,29.389321 0,-63.002256 -16.41051,0 c -7.21534,0 -12.71484,1.605854 -16.49849,4.817561 -3.78366,3.211707 -5.67548,7.882614 -5.67548,14.012722 0,6.511406 2.05314,11.504951 6.15943,14.980634 4.1063,3.475683 10.01642,5.213525 17.73039,5.213525 l 1.97982,0 0,23.977814 12.71484,0 z"
       style="fill:#FFFFFF;fill-opacity:1;fill-rule:evenodd;stroke:none"
       id="path3027" /><path
       d="m 603.79131,30.18641 0,63.002256 12.71484,0 0,-37.396591 9.37115,0 0,13.418777 12.71484,0 0,-39.024442 -12.71484,0 0,19.270243 -9.37115,0 0,-19.270243 -12.71484,0 z"
       style="fill:#FFFFFF;fill-opacity:1;fill-rule:evenodd;stroke:none"
       id="path3029" /><path
       d="m 659.65478,30.18641 c -3.02106,0 -5.15486,0.667272 -6.40142,2.001817 -1.24655,1.334545 -1.86983,3.644335 -1.86983,6.929369 l 0,21.16207 c 0,3.285034 0.62328,5.594823 1.86983,6.929368 1.24656,1.334545 3.38036,2.001818 6.40142,2.001818 l 18.12635,0 0,-5.851467 -9.63512,0 c -1.61319,0 -2.69109,-0.293306 -3.23371,-0.879919 -0.54262,-0.586614 -0.81392,-1.745175 -0.81392,-3.475684 l 0,-6.379418 12.23088,0 0,-5.851466 -12.23088,0 0,-6.511407 c 0,-1.701178 0.26397,-2.830409 0.79192,-3.387691 0.52795,-0.557283 1.61319,-0.835924 3.25571,-0.835924 l 10.25106,0 0,-5.851466 -18.74229,0 z"
       style="fill:#FFFFFF;fill-opacity:1;fill-rule:evenodd;stroke:none"
       id="path3031" /><path
       d="m 689.51662,30.18641 0,39.024442 12.71484,0 0,-39.024442 -12.71484,0 z m -0.26398,55.038982 c 0,1.847831 0.65261,3.424354 1.95782,4.729569 1.30522,1.305213 2.86707,1.957821 4.68558,1.957821 1.87716,0 3.46101,-0.645275 4.75156,-1.935824 1.29055,-1.290549 1.93583,-2.874405 1.93583,-4.751566 0,-1.847832 -0.65261,-3.417022 -1.95783,-4.707571 -1.30521,-1.29055 -2.88173,-1.935824 -4.72956,-1.935824 -1.81851,0 -3.38036,0.652607 -4.68558,1.957822 -1.30521,1.305214 -1.95782,2.867071 -1.95782,4.685573 z"
       style="fill:#FFFFFF;fill-opacity:1;fill-rule:evenodd;stroke:none"
       id="path3033" /><path
       d="m 712.14252,30.18641 0,33.700927 c 0,2.1998 0.63061,3.842316 1.89183,4.927551 1.26122,1.085234 3.15304,1.627852 5.67548,1.627852 1.99449,0 3.57834,-0.447293 4.75157,-1.341878 1.17322,-0.894586 2.22913,-2.485773 3.16771,-4.773565 l 5.23552,-12.626849 5.05954,12.626849 c 0.90925,2.346453 1.93582,3.952306 3.07972,4.817561 1.14389,0.865254 2.78641,1.297882 4.92755,1.297882 2.5811,0 4.51692,-0.542618 5.80747,-1.627852 1.29055,-1.085235 1.93582,-2.727751 1.93582,-4.927551 l 0,-33.700927 -12.53885,0 0,28.817372 -11.26298,-28.817372 -0.43996,0 -10.99899,27.673477 0,-27.673477 -6.29143,0 z"
       style="fill:#FFFFFF;fill-opacity:1;fill-rule:evenodd;stroke:none"
       id="path3035" /></g></svg>